<svg width="16" height="16" xmlns="http://www.w3.org/2000/svg">
 <defs>
  <filter height="200%" width="200%" y="-50%" x="-50%" id="svg_27_blur">
   <feGaussianBlur stdDeviation="0.2" in="SourceGraphic"/>
  </filter>
 </defs>
 <g>
  <title>background</title>
  <rect fill="none" id="canvas_background" height="602" width="802" y="-1" x="-1"/>
 </g>
 <g>
  <title>Layer 1</title>
  <g stroke="null" id="svg_19">
   <polygon stroke="null" id="svg_9" points="10.135377287864685,3.7305007874965668 8.103143572807312,4.9038072526454926 10.135377287864685,6.077113717794418 10.135377287864685,3.7305007874965668 " class="cls-1"/>
   <polygon stroke="null" id="svg_10" points="6.070909857749939,3.7305007874965668 6.070909857749939,6.077113717794418 8.103143572807312,4.9038072526454926 6.070909857749939,3.7305007874965668 " class="cls-2"/>
   <polygon stroke="null" id="svg_11" points="10.135377287864685,6.077113717794418 8.103143572807312,4.9038072526454926 6.070909857749939,6.077113717794418 8.103143572807312,7.250420659780502 10.135377287864685,6.077113717794418 " class="cls-3"/>
   <polygon stroke="null" id="svg_12" points="3.92811381816864,7.442096322774887 5.960347533226013,8.61527356505394 5.960347533226013,6.2687903344631195 3.92811381816864,7.442096322774887 " class="cls-1"/>
   <polygon stroke="null" id="svg_13" points="5.960347533226013,10.961887449026108 7.992451548576355,9.78857907652855 5.960347533226013,8.61527356505394 5.960347533226013,10.961887449026108 " class="cls-2"/>
   <polygon stroke="null" id="svg_14" points="5.960347533226013,6.2687903344631195 5.960347533226013,8.61527356505394 7.992451548576355,9.78857907652855 7.992451548576355,7.442096322774887 5.960347533226013,6.2687903344631195 " class="cls-3"/>
   <polygon stroke="null" id="svg_15" points="10.245938658714294,10.961887449026108 10.245938658714294,8.61527356505394 8.213834643363953,9.78857907652855 10.245938658714294,10.961887449026108 " class="cls-1"/>
   <polygon stroke="null" id="svg_16" points="12.27817189693451,7.442096322774887 10.245938658714294,6.2687903344631195 10.245938658714294,8.61527356505394 12.27817189693451,7.442096322774887 " class="cls-2"/>
   <polygon stroke="null" id="svg_17" points="8.213834643363953,9.78857907652855 10.245938658714294,8.61527356505394 10.245938658714294,6.2687903344631195 8.213834643363953,7.442096322774887 8.213834643363953,9.78857907652855 " class="cls-3"/>
   <path stroke="null" id="svg_18" d="m12.51363,1.41114l-8.82098,0c-1.20431,0 -2.18968,0.98538 -2.18968,2.18968l0,8.82098c0,1.20431 0.98538,2.18968 2.18968,2.18968l6.0409,0l-1.63041,-3.96023l-1.18286,2.5007l-3.22763,0c-0.39562,0 -0.73015,-0.33453 -0.73015,-0.73015l0,-8.82098c0,-0.39562 0.33453,-0.73015 0.73015,-0.73015l8.82098,0c0.39562,0 0.73015,0.33453 0.73015,0.73015l0,8.82098c0,0.39562 -0.33453,0.73015 -0.73015,0.73015l-1.91405,0l0.60086,1.45953l1.31319,0c1.20431,0 2.18968,-0.98538 2.18968,-2.18968l0,-8.82098c0,-1.20431 -0.98538,-2.18968 -2.18968,-2.18968z" class="cls-1"/>
  </g>
  <defs>
   <style>.cls-1{fill:#4695eb;}.cls-2{fill:#ff004a;}.cls-3{fill:#091313;}</style>
  </defs>
  <g id="svg_28">
   <path stroke="null" filter="url(#svg_27_blur)" id="svg_27" d="m14.69754,13.10483l0,0.19288c0,0.19079 -0.03287,0.49473 -0.07966,0.67179l0.88393,0l0,0.86467l-1.30946,0c-0.40882,0.49816 -1.02596,0.7782 -1.72274,0.7782c-0.69679,0 -1.31394,-0.28004 -1.72276,-0.7782l-1.37185,0l0,-0.86467l0.94632,0c-0.04678,-0.17705 -0.07966,-0.481 -0.07966,-0.67179l0,-0.19288l-0.86666,0l0,-0.86468l0.86666,0l0,-0.59197c0,-0.09402 0.01672,-0.18143 0.02842,-0.27269l-0.89508,0l0,-0.86468l1.17803,0c0.21276,-0.35905 0.52356,-0.61332 0.89841,-0.80631l-0.78257,-0.77197l0.59097,-0.5834l1.12287,1.10849c0.02953,-0.00109 0.02618,-0.00551 0.05571,-0.00551c0.01058,0 0.05069,0.00441 0.06126,0.00495l1.11732,-1.10793l0.59095,0.5834l-0.76029,0.75054c0.39268,0.19189 0.71796,0.4555 0.93852,0.82775l1.11564,0l0,0.86468l-0.83269,0c0.0117,0.09126 0.02841,0.17867 0.02841,0.27269l0,0.59197l0.80427,0l0,0.86468l-0.80427,0zm-3.16086,-1.72934l0,0.86466l1.80718,0l0,-0.86466l-1.80718,0zm0,1.72934l0,0.86467l1.80718,0l0,-0.86467l-1.80718,0z" fill="#000000"/>
   <path stroke="null" id="svg_25" d="m14.45796,12.8232l0,0.19095c0,0.18888 -0.03253,0.48978 -0.07885,0.66505l0.87508,0l0,0.85601l-1.29635,0c-0.40473,0.49317 -1.01569,0.77042 -1.70549,0.77042c-0.6898,0 -1.30078,-0.27724 -1.70551,-0.77042l-1.35811,0l0,-0.85601l0.93684,0c-0.04631,-0.17528 -0.07885,-0.47618 -0.07885,-0.66505l0,-0.19095l-0.85799,0l0,-0.85602l0.85799,0l0,-0.58604c0,-0.09308 0.01654,-0.17961 0.02813,-0.26997l-0.88612,0l0,-0.85602l1.16623,0c0.21063,-0.35545 0.51832,-0.60718 0.88942,-0.79824l-0.77473,-0.76424l0.58504,-0.57755l1.11164,1.09739c0.02923,-0.00108 0.02592,-0.00545 0.05514,-0.00545c0.01048,0 0.05018,0.00437 0.06066,0.0049l1.10612,-1.09684l0.58503,0.57755l-0.75268,0.74302c0.38875,0.18997 0.71077,0.45094 0.92912,0.81946l1.10447,0l0,0.85602l-0.82435,0c0.01158,0.09036 0.02812,0.17689 0.02812,0.26997l0,0.58604l0.79623,0l0,0.85602l-0.79623,0zm-3.1292,-1.71203l0,0.85601l1.78907,0l0,-0.85601l-1.78907,0zm0,1.71203l0,0.85601l1.78907,0l0,-0.85601l-1.78907,0z" fill="#62B543"/>
  </g>
 </g>
</svg>